# xmcd CD database file
#
# Track frame offsets:
#	183
#	12583
#	27343
#	38920
#	52400
#	67323
#	80655
#	95608
#	108703
#	120165
#	132733
#	143508
#	153790
#	169083
#	182953
#	192900
#	201668
#	214943
#	226670
#	238723
#	249940
#	265258
#	276858
#	289443
#	302028
#
# Disc length: 4200 seconds
#
# Revision: 2
# Processed by: cddbd v1.5.2PL0 Copyright (c) Steve Scherf et al.
# Submitted via: CDex 1.51
#
DISCID=83106619
DTITLE=Various Artist - Country Legends
DYEAR=1995
DGENRE=Country
TTITLE0=Crystal Gayle - Don't It Make My Brown Eyes Blue
TTITLE1=Roger MIller - Me and Bobby McGee
TTITLE2=Patsy Cline - Walking After Midnight
TTITLE3=Kenny Rogers - Ruby, Don't Take Your Love To Town
TTITLE4=Billie Jo Spears - Midnight Love
TTITLE5=Don Williams - Where Do I Go From Here
TTITLE6=Jeannie C Riley - Harper Valley PTA
TTITLE7=Johnny Darrell - Son Of Hickory Holler's Tramp
TTITLE8=The Kendalls - Heaven's Just A Sin Away
TTITLE9=Johnny Cash - I Still Miss Someone
TTITLE10=Patsy Cline - I Can See An Angel
TTITLE11=Carl Perkins - Dady Sang Bass
TTITLE12=Billie Jo Spears - Blanket On The Ground
TTITLE13=Charley Pride - Can't Stop Mississippi
TTITLE14=Crystal Gayle - Break My Mind
TTITLE15=Waylon Jennings - Love's Gonna Live Here
TTITLE16=Wanda Jackson - I Fall To Pieces
TTITLE17=Jim Reeves - When God Dips His Love In My Heart
TTITLE18=Billie Jo Spears - Misty Blue
TTITLE19=Roger Miller - King Of The Road
TTITLE20=Crystal Gayle - Ready For The Times To Get Better
TTITLE21=Charley Pride - Louisiana Man
TTITLE22=Wanda Jackson - Crazy
TTITLE23=Kenny Rogers - Reuben James
TTITLE24=Dottie West - D-I-V-O-R-C-E
EXTD=YEAR: 1995
EXTT0=
EXTT1=
EXTT2=
EXTT3=
EXTT4=
EXTT5=
EXTT6=
EXTT7=
EXTT8=
EXTT9=
EXTT10=
EXTT11=
EXTT12=
EXTT13=
EXTT14=
EXTT15=
EXTT16=
EXTT17=
EXTT18=
EXTT19=
EXTT20=
EXTT21=
EXTT22=
EXTT23=
EXTT24=
PLAYORDER=
